<svg width="274" height="187" viewBox="0 0 274 187" fill="none" xmlns="http://www.w3.org/2000/svg">
<path d="M247.889 51.4374L239.317 40.1386C231.671 30.06 227.848 25.0208 223.606 22.0523C213.583 15.0393 200.504 14.1458 189.62 19.7308C185.014 22.0948 180.541 26.5675 171.596 35.5127C163.8 43.3085 159.902 47.2064 155.777 49.4712C146.06 54.8063 134.313 54.9058 124.506 49.7362C120.343 47.5416 116.38 43.7103 108.453 36.0477L106.858 34.5055C96.6058 24.5955 91.48 19.6405 86.0264 17.2595C76.4326 13.071 65.4205 13.6829 56.3498 18.9084C51.1936 21.8788 46.6482 27.3712 37.5574 38.3559L37.5574 38.3559L28.0333 49.8642C21.6483 57.5793 18.4559 61.4369 16.564 65.9519C16.1292 66.9895 15.7477 68.0487 15.4211 69.1254C14 73.8099 14 78.8172 14 88.8317V98.5995C14 108.614 14 113.621 15.4211 118.306C15.7477 119.382 16.1292 120.442 16.564 121.479C18.4559 125.994 21.6483 129.852 28.0333 137.567L37.5574 149.075C46.6482 160.06 51.1936 165.552 56.3498 168.523C65.4205 173.748 76.4326 174.36 86.0264 170.172C91.48 167.791 96.6058 162.836 106.858 152.926L108.453 151.383C116.38 143.721 120.343 139.89 124.506 137.695C134.313 132.525 146.06 132.625 155.777 137.96C159.902 140.225 163.8 144.123 171.596 151.919C180.541 160.864 185.014 165.336 189.62 167.7C200.504 173.285 213.583 172.392 223.606 165.379C227.848 162.41 231.671 157.371 239.317 147.293L247.889 135.994C252.799 129.521 255.254 126.285 256.837 122.634C257.577 120.927 258.171 119.16 258.614 117.352C259.559 113.488 259.559 109.425 259.559 101.301V86.1305C259.559 78.0059 259.559 73.9436 258.614 70.0792C258.171 68.2714 257.577 66.5043 256.837 64.7967C255.254 61.1466 252.799 57.9102 247.889 51.4374Z" stroke="#FFFBFB" stroke-width="28"/>
</svg>
